M48
; DRILL file {KiCad (6.0.4)} date Mon Jul  4 21:46:27 2022
; FORMAT={-:-/ absolute / inch / decimal}
; #@! TF.CreationDate,2022-07-04T21:46:27+01:00
; #@! TF.GenerationSoftware,Kicad,Pcbnew,(6.0.4)
; #@! TF.FileFunction,Plated,1,2,PTH
FMAT,2
INCH
; #@! TA.AperFunction,Plated,PTH,ViaDrill
T1C0.0157
; #@! TA.AperFunction,Plated,PTH,ComponentDrill
T2C0.0315
; #@! TA.AperFunction,Plated,PTH,ComponentDrill
T3C0.0394
; #@! TA.AperFunction,Plated,PTH,ComponentDrill
T4C0.0472
; #@! TA.AperFunction,Plated,PTH,ComponentDrill
T5C0.0492
; #@! TA.AperFunction,Plated,PTH,ComponentDrill
T6C0.0650
%
G90
G05
T1
X6.498Y-2.1358
X6.6988Y-1.8848
X6.7569Y-2.0886
X6.9075Y-1.7106
X6.9488Y-1.8898
X7.3819Y-2.0177
X7.4508Y-1.9291
X7.6171Y-2.0778
X7.9931Y-1.4439
X8.5787Y-1.4951
X8.6841Y-1.5787
X8.7461Y-2.0531
X8.7894Y-1.5295
X8.9567Y-1.7913
X9.4695Y-1.2638
X9.7667Y-2.2687
T2
X6.314Y-1.9833
X6.314Y-2.062
X6.314Y-2.1407
T3
X7.4646Y-1.2953
X7.4882Y-1.4935
X7.4882Y-1.5935
X7.5646Y-1.2953
X7.6646Y-1.2953
X7.7646Y-1.2953
X7.8646Y-1.2953
X7.9646Y-1.2953
X8.5906Y-1.2913
X8.6906Y-1.2913
X8.7906Y-1.2913
X8.8906Y-1.2913
X9.0925Y-2.0689
X9.1925Y-2.0689
X9.2925Y-2.0689
X9.3925Y-2.0689
X9.5217Y-1.4035
X9.5217Y-1.5035
T4
X9.9862Y-2.0571
X10.1831Y-1.8602
X10.1831Y-2.2539
X10.2815Y-1.8602
X10.2815Y-2.2539
T5
X6.314Y-1.9006
X6.314Y-2.2234
T6
X9.9862Y-1.8602
X9.9862Y-1.9587
X9.9862Y-2.1555
X9.9862Y-2.2539
X10.1831Y-2.0571
T0
M30
