M48
; DRILL file {KiCad (6.0.0-0)} date Saturday, 25 June 2022 at 20:39:05
; FORMAT={-:-/ absolute / metric / decimal}
; #@! TF.CreationDate,2022-06-25T20:39:05+01:00
; #@! TF.GenerationSoftware,Kicad,Pcbnew,(6.0.0-0)
; #@! TF.FileFunction,Plated,1,2,PTH
FMAT,2
METRIC
; #@! TA.AperFunction,Plated,PTH,ViaDrill
T1C0.400
; #@! TA.AperFunction,Plated,PTH,ComponentDrill
T2C0.800
; #@! TA.AperFunction,Plated,PTH,ComponentDrill
T3C1.000
; #@! TA.AperFunction,Plated,PTH,ComponentDrill
T4C1.200
; #@! TA.AperFunction,Plated,PTH,ComponentDrill
T5C1.250
; #@! TA.AperFunction,Plated,PTH,ComponentDrill
T6C1.650
%
G90
G05
T1
X165.05Y-54.25
X170.15Y-47.875
X171.625Y-53.05
X175.45Y-43.45
X176.5Y-48.0
X187.5Y-51.25
X189.25Y-49.0
X193.475Y-52.775
X203.025Y-36.675
X217.9Y-37.975
X220.575Y-40.1
X222.15Y-52.15
X223.25Y-38.85
X227.5Y-45.5
X240.525Y-32.1
X248.075Y-57.625
T2
X160.375Y-50.375
X160.375Y-52.375
X160.375Y-54.375
T3
X189.6Y-32.9
X190.2Y-37.935
X190.2Y-40.475
X192.14Y-32.9
X194.68Y-32.9
X197.22Y-32.9
X199.76Y-32.9
X202.3Y-32.9
X218.2Y-32.8
X220.74Y-32.8
X223.28Y-32.8
X225.82Y-32.8
X230.95Y-52.55
X233.49Y-52.55
X236.03Y-52.55
X238.57Y-52.55
X241.85Y-35.65
X241.85Y-38.19
T4
X253.65Y-52.25
X258.65Y-47.25
X258.65Y-57.25
X261.15Y-47.25
X261.15Y-57.25
T5
X160.375Y-48.275
X160.375Y-56.475
T6
X253.65Y-47.25
X253.65Y-49.75
X253.65Y-54.75
X253.65Y-57.25
X258.65Y-52.25
T0
M30
